<?xml version="1.0" standalone="no"?>
<!DOCTYPE svg PUBLIC "-//W3C//DTD SVG 20010904//EN"
 "http://www.w3.org/TR/2001/REC-SVG-20010904/DTD/svg10.dtd">
<svg version="1.0" xmlns="http://www.w3.org/2000/svg"
 width="512.000000pt" height="512.000000pt" viewBox="0 0 512.000000 512.000000"
 preserveAspectRatio="xMidYMid meet">

<g transform="translate(0.000000,512.000000) scale(0.100000,-0.100000)"
fill="#000000" stroke="none">
<path d="M2315 5109 c-800 -83 -1501 -518 -1927 -1196 -487 -774 -516 -1777
-75 -2578 200 -364 487 -676 841 -913 238 -159 600 -311 876 -366 214 -43 295
-51 530 -51 236 0 333 10 532 51 880 184 1615 842 1898 1702 92 278 125 491
125 802 0 301 -32 513 -116 775 -124 390 -330 728 -622 1024 -399 404 -893
653 -1462 737 -123 18 -478 26 -600 13z m163 -845 c-31 -16 -38 -30 -11 -20
10 4 47 4 83 0 36 -4 56 -10 46 -12 -13 -3 -15 -6 -7 -11 6 -4 40 -4 74 1 34
5 83 7 109 4 37 -4 46 -2 42 9 -7 17 192 -44 284 -87 55 -26 70 -29 116 -24
66 9 103 0 111 -25 4 -10 26 -33 51 -49 46 -32 57 -31 27 3 -13 15 -6 13 27
-8 131 -81 268 -217 358 -354 56 -85 118 -218 108 -229 -3 -3 -6 0 -6 6 0 7
-4 12 -9 12 -14 0 -1 -106 21 -169 30 -89 20 -82 -15 9 -49 129 -67 156 -103
152 -43 -5 -49 -16 -35 -63 9 -28 17 -39 26 -35 19 7 30 -15 45 -89 6 -33 13
-69 16 -80 4 -18 3 -18 -12 3 -29 39 -35 24 -13 -30 13 -33 21 -71 20 -101 -2
-59 6 -87 25 -87 18 0 18 -5 -6 -68 -11 -29 -20 -71 -21 -95 l-1 -42 -13 30
-14 30 -1 -27 c0 -16 -4 -28 -9 -28 -4 0 -11 -23 -14 -51 -4 -28 -24 -90 -46
-137 -22 -48 -43 -99 -46 -114 l-7 -28 -17 22 c-18 21 -18 21 -39 -24 -12 -24
-22 -60 -23 -79 0 -23 -3 -29 -7 -16 -6 15 -15 10 -57 -33 -109 -112 -263
-204 -404 -242 -116 -32 -303 -30 -434 5 -56 15 -105 34 -115 45 -9 10 -55 50
-101 88 -191 158 -265 305 -264 527 0 87 4 118 21 155 11 26 32 74 47 107 14
33 38 74 54 90 15 17 38 47 52 68 32 50 125 120 197 148 86 33 211 37 300 10
72 -21 168 -79 212 -126 25 -27 24 -27 -25 4 -107 68 -274 91 -396 55 -219
-65 -381 -277 -366 -477 12 -151 47 -262 113 -359 136 -200 382 -306 584 -253
36 9 76 19 89 21 45 9 89 32 132 71 24 21 38 30 30 21 -28 -37 17 -19 78 30
132 106 154 132 162 186 5 31 15 55 25 61 36 21 52 45 72 106 17 54 20 94 21
253 1 104 -3 210 -8 235 -35 155 -46 192 -76 258 -76 165 -236 349 -374 431
-169 100 -350 130 -655 111 -92 -6 -106 -10 -200 -57 -55 -27 -112 -55 -126
-61 -23 -10 -21 -11 15 -7 38 5 39 4 15 -8 -14 -8 -50 -17 -80 -21 -63 -8
-136 -44 -177 -87 l-28 -30 25 7 c22 6 23 5 10 -7 -8 -8 -33 -20 -55 -26 -85
-24 -217 -135 -348 -292 -58 -70 -74 -96 -62 -98 21 -5 15 -22 -51 -152 -53
-103 -54 -108 -70 -250 -10 -80 -17 -212 -18 -295 -1 -135 1 -154 21 -195 16
-33 21 -56 16 -86 -3 -27 0 -51 11 -72 9 -17 13 -38 10 -46 -7 -18 35 -113 60
-139 10 -9 28 -17 41 -17 14 0 34 -13 51 -32 28 -34 69 -116 61 -124 -2 -2
-16 5 -31 17 l-26 21 10 -26 c14 -39 41 -88 63 -118 16 -21 18 -30 8 -41 -9
-12 -6 -21 15 -46 15 -18 24 -34 21 -38 -15 -14 131 -222 151 -215 6 2 12 -3
12 -11 0 -7 18 -42 40 -75 31 -49 45 -62 65 -62 16 0 38 -15 65 -44 22 -24 54
-49 70 -56 33 -14 36 -20 18 -38 -6 -6 -10 -13 -7 -14 2 -2 20 -12 39 -22 19
-11 59 -33 89 -49 l53 -30 -7 24 c-6 17 10 5 53 -39 74 -76 134 -106 285 -138
l112 -24 -125 5 c-138 4 -215 22 -358 81 -468 194 -870 674 -1007 1204 -44
169 -48 216 -50 565 l-3 340 35 110 c38 117 120 315 131 314 25 -4 37 13 83
109 28 59 54 109 58 112 4 3 19 26 34 52 31 53 261 274 284 271 8 0 38 16 65
37 103 78 433 232 479 223 13 -2 42 0 64 5 22 6 51 10 65 11 l25 0 -27 -15z
m-33 -2105 c15 -10 14 -6 -6 16 -45 53 -54 71 -19 38 44 -39 140 -103 157
-103 7 0 34 -15 60 -34 60 -43 144 -65 276 -73 111 -7 102 -20 -14 -22 -206
-3 -484 141 -604 314 -18 26 0 12 51 -41 44 -45 88 -87 99 -95z"/>
</g>
</svg>
